<?xml version="1.0" encoding="utf-8"?>
<svg viewBox="203.274 104.801 119.443 253.799" xmlns="http://www.w3.org/2000/svg">
  <path d="M 131.143 122.503 C 131.143 121.923 131.366 121.416 131.813 120.983 C 132.26 120.556 132.803 120.21 133.443 119.943 C 134.076 119.683 134.74 119.483 135.433 119.343 C 136.126 119.21 136.72 119.143 137.213 119.143 C 137.706 119.143 138.203 119.223 138.703 119.383 C 139.203 119.55 139.646 119.783 140.033 120.083 C 140.413 120.383 140.706 120.766 140.913 121.233 C 141.126 121.7 141.196 122.233 141.123 122.833 C 141.03 123.76 140.723 124.58 140.203 125.293 C 139.683 126.006 139.046 126.603 138.293 127.083 C 137.54 127.57 136.72 127.933 135.833 128.173 C 134.946 128.42 134.093 128.543 133.273 128.543 C 133.273 129.223 133.3 129.893 133.353 130.553 C 133.413 131.22 133.473 131.89 133.533 132.563 C 133.6 133.243 133.66 133.913 133.713 134.573 C 133.766 135.24 133.793 135.91 133.793 136.583 C 133.793 136.783 133.776 136.97 133.743 137.143 C 133.703 137.316 133.54 137.45 133.253 137.543 L 132.703 137.023 C 132.703 137.003 132.676 136.746 132.623 136.253 C 132.563 135.766 132.483 135.13 132.383 134.343 C 132.283 133.556 132.176 132.666 132.063 131.673 C 131.943 130.68 131.826 129.683 131.713 128.683 C 131.606 127.683 131.503 126.716 131.403 125.783 C 131.303 124.856 131.216 124.056 131.143 123.383 C 131.143 123.363 131.143 123.316 131.143 123.243 C 131.143 123.17 131.143 123.086 131.143 122.993 C 131.143 122.906 131.143 122.816 131.143 122.723 C 131.143 122.63 131.143 122.556 131.143 122.503 Z M 132.673 123.493 C 132.673 123.873 132.676 124.226 132.683 124.553 C 132.696 124.88 132.726 125.2 132.773 125.513 C 132.813 125.82 132.87 126.14 132.943 126.473 C 133.016 126.8 133.12 127.173 133.253 127.593 C 133.813 127.5 134.486 127.326 135.273 127.073 C 136.053 126.813 136.803 126.466 137.523 126.033 C 138.243 125.593 138.85 125.086 139.343 124.513 C 139.836 123.94 140.083 123.296 140.083 122.583 C 140.083 122.203 139.993 121.863 139.813 121.563 C 139.626 121.263 139.393 121.013 139.113 120.813 C 138.833 120.606 138.52 120.45 138.173 120.343 C 137.826 120.236 137.49 120.183 137.163 120.183 C 136.63 120.183 136.096 120.246 135.563 120.373 C 135.023 120.5 134.54 120.7 134.113 120.973 C 133.68 121.246 133.333 121.593 133.073 122.013 C 132.806 122.433 132.673 122.926 132.673 123.493 Z" transform="matrix(9.25573444366455, 0, 0, 6.312929153442383, -1005.6118774414062, -582.124755859375)" style="fill: rgb(51, 51, 51); white-space: pre;"/>
  <path d="M 308.618 292.379 C 308.618 291.639 308.901 290.999 309.468 290.459 C 310.028 289.912 310.715 289.472 311.528 289.139 C 312.335 288.806 313.175 288.552 314.048 288.379 C 314.928 288.206 315.678 288.119 316.298 288.119 C 316.925 288.119 317.555 288.222 318.188 288.429 C 318.821 288.636 319.381 288.929 319.868 289.309 C 320.355 289.689 320.731 290.176 320.998 290.769 C 321.258 291.356 321.345 292.029 321.258 292.789 C 321.138 293.969 320.751 295.009 320.098 295.909 C 319.438 296.809 318.628 297.566 317.668 298.179 C 316.715 298.786 315.678 299.246 314.558 299.559 C 313.438 299.872 312.358 300.029 311.318 300.029 C 311.318 300.882 311.351 301.729 311.418 302.569 C 311.491 303.416 311.568 304.266 311.648 305.119 C 311.728 305.972 311.801 306.819 311.868 307.659 C 311.941 308.506 311.978 309.356 311.978 310.209 C 311.978 310.462 311.955 310.699 311.908 310.919 C 311.861 311.139 311.651 311.306 311.278 311.419 L 310.588 310.759 C 310.588 310.739 310.555 310.416 310.488 309.789 C 310.415 309.169 310.315 308.362 310.188 307.369 C 310.061 306.376 309.925 305.249 309.778 303.989 C 309.625 302.736 309.478 301.472 309.338 300.199 C 309.205 298.932 309.075 297.709 308.948 296.529 C 308.821 295.356 308.711 294.339 308.618 293.479 C 308.618 293.459 308.618 293.402 308.618 293.309 C 308.618 293.216 308.618 293.112 308.618 292.999 C 308.618 292.886 308.618 292.769 308.618 292.649 C 308.618 292.536 308.618 292.446 308.618 292.379 Z M 310.558 293.619 C 310.558 294.106 310.561 294.556 310.568 294.969 C 310.581 295.389 310.618 295.796 310.678 296.189 C 310.731 296.576 310.805 296.979 310.898 297.399 C 310.991 297.812 311.118 298.286 311.278 298.819 C 311.998 298.699 312.855 298.479 313.848 298.159 C 314.835 297.832 315.785 297.392 316.698 296.839 C 317.611 296.286 318.381 295.646 319.008 294.919 C 319.628 294.192 319.938 293.379 319.938 292.479 C 319.938 291.992 319.821 291.559 319.588 291.179 C 319.361 290.799 319.068 290.482 318.708 290.229 C 318.348 289.976 317.951 289.779 317.518 289.639 C 317.078 289.499 316.651 289.429 316.238 289.429 C 315.565 289.429 314.888 289.512 314.208 289.679 C 313.528 289.839 312.915 290.092 312.368 290.439 C 311.828 290.786 311.391 291.222 311.058 291.749 C 310.725 292.282 310.558 292.906 310.558 293.619 Z" transform="matrix(6.964599132537842, 0, 0, 4.536266803741455, -1916.401611328125, -1122.2564697265625)" style="fill: rgb(51, 51, 51); white-space: pre;"/>
</svg>